<svg id="Layer_1" data-name="Layer 1" xmlns="http://www.w3.org/2000/svg" viewBox="0 0 100 100"><defs><style>.cls-1{fill:#daedf7;}.cls-2,.cls-6{fill:#fff;}.cls-3{fill:none;}.cls-15,.cls-3,.cls-6,.cls-7,.cls-8,.cls-9{stroke:#45413c;stroke-linecap:round;stroke-linejoin:round;}.cls-4{fill:#00b8f0;}.cls-5{fill:#4acfff;}.cls-12,.cls-7{fill:#c0dceb;}.cls-8{fill:#ffe500;}.cls-9{fill:#ffda8f;}.cls-10{fill:#f0f0f0;}.cls-11{fill:#020202;opacity:0.15;}.cls-13{fill:#adc4d9;}.cls-14{fill:#ffbe3d;}.cls-15{fill:#614b44;}.cls-16{fill:#ff6242;}.cls-17{fill:#ff866e;}</style></defs><title>arab-male-travel</title><path class="cls-1" d="M85.5,56.5A40,40,0,1,0,9.06,73H81.94A39.85,39.85,0,0,0,85.5,56.5Z"/><path class="cls-2" d="M9.06,73a40,40,0,0,0,72.88,0Z"/><line class="cls-3" x1="6.5" y1="73" x2="84.5" y2="73"/><line class="cls-3" x1="2" y1="73" x2="4.5" y2="73"/><line class="cls-3" x1="86.5" y1="73" x2="89" y2="73"/><path class="cls-4" d="M71.5,70.5V66.44a.94.94,0,0,0-.94-.94H39.8l-1.11,5Z"/><polygon class="cls-5" points="58.73 65.5 39.8 65.5 38.69 70.5 53.73 70.5 58.73 65.5"/><path class="cls-2" d="M38.6,70.5,38,73H74V65.1a1.6,1.6,0,0,0-1.6-1.6H41.34a1.21,1.21,0,0,0-1.17.91L39.8,65.5H70.56a.94.94,0,0,1,.94.94V70.5Z"/><path class="cls-3" d="M38.6,70.5,38,73H74V65.1a1.6,1.6,0,0,0-1.6-1.6H41.34a1.21,1.21,0,0,0-1.17.91L39.8,65.5H70.56a.94.94,0,0,1,.94.94V70.5Z"/><path class="cls-3" d="M71.5,70.5V66.44a.94.94,0,0,0-.94-.94H39.8l-1.11,5Z"/><path class="cls-2" d="M46.5,61.8v1.7H72.4A1.6,1.6,0,0,1,74,65.1V73h6V61.8A1.79,1.79,0,0,0,78.2,60H48.3A1.79,1.79,0,0,0,46.5,61.8Z"/><path class="cls-1" d="M73.9,62H46.5v1.5H72.4A1.6,1.6,0,0,1,74,65.1V73h1.5V63.6A1.6,1.6,0,0,0,73.9,62Z"/><path class="cls-3" d="M46.5,61.8v1.7H72.4A1.6,1.6,0,0,1,74,65.1V73h6V61.8A1.79,1.79,0,0,0,78.2,60H48.3A1.79,1.79,0,0,0,46.5,61.8Z"/><path class="cls-6" d="M59.2,57.5A1.2,1.2,0,0,0,58,58.7V60H77V58.7a1.2,1.2,0,0,0-1.2-1.2Z"/><path class="cls-2" d="M58.4,35.5a.54.54,0,0,0-.53.6l.34,2.9H76.59l.34-2.9a.54.54,0,0,0-.53-.6Z"/><polygon class="cls-1" points="57.98 37.04 58.21 39 76.59 39 76.82 37.04 57.98 37.04"/><path class="cls-3" d="M58.4,35.5a.54.54,0,0,0-.53.6l.34,2.9H76.59l.34-2.9a.54.54,0,0,0-.53-.6Z"/><rect class="cls-2" x="61.5" y="51" width="12" height="6.5"/><rect class="cls-7" x="61.5" y="46" width="12" height="2.5"/><path class="cls-2" d="M61.4,35.5h12c0-1-.83-2.5-1.85-2.5h-8.3C62.23,33,61.4,34.48,61.4,35.5Z"/><path class="cls-3" d="M61.4,35.5h12c0-1-.83-2.5-1.85-2.5h-8.3C62.23,33,61.4,34.48,61.4,35.5Z"/><rect class="cls-1" x="61.5" y="51" width="12" height="2.06" transform="translate(135 104.06) rotate(180)"/><rect class="cls-3" x="61.5" y="51" width="12" height="6.5"/><path class="cls-8" d="M60.8,48.5a1.29,1.29,0,0,0-1.2,1.3A1.2,1.2,0,0,0,60.8,51H74a1.2,1.2,0,0,0,1.2-1.2A1.29,1.29,0,0,0,74,48.5Z"/><path class="cls-4" d="M76.59,39l-.69,6.11a1,1,0,0,1-1,.89h-15a1,1,0,0,1-1-.89L58.21,39Z"/><path class="cls-5" d="M58.21,39l.69,6.11a1,1,0,0,0,1,.89h4.16l7-7Z"/><path class="cls-3" d="M76.59,39l-.69,6.11a1,1,0,0,1-1,.89h-15a1,1,0,0,1-1-.89L58.21,39Z"/><line class="cls-3" x1="67.5" y1="33" x2="67.5" y2="28.5"/><line class="cls-3" x1="64.5" y1="33" x2="64.5" y2="31.5"/><line class="cls-3" x1="70.5" y1="33" x2="70.5" y2="31.5"/><line class="cls-3" x1="74" y1="39" x2="74" y2="46"/><line class="cls-3" x1="70" y1="39" x2="70" y2="46"/><line class="cls-3" x1="65" y1="39" x2="65" y2="46"/><line class="cls-3" x1="61" y1="39" x2="61" y2="46"/><line class="cls-3" x1="67.5" y1="65.5" x2="67.5" y2="70.5"/><line class="cls-3" x1="62.5" y1="65.5" x2="62.5" y2="70.5"/><line class="cls-3" x1="57.5" y1="65.5" x2="57.5" y2="70.5"/><line class="cls-3" x1="52.5" y1="65.5" x2="52.5" y2="70.5"/><line class="cls-3" x1="47.5" y1="65.5" x2="47.5" y2="70.5"/><line class="cls-3" x1="42.9" y1="65.8" x2="42.9" y2="70.6"/><path class="cls-9" d="M20,68.51a2,2,0,1,0,4,0v-2H20Z"/><path class="cls-10" d="M39,66.5h4a.58.58,0,0,0,.58-.57V56.15a12.08,12.08,0,1,0-24.15,0v9.78a.57.57,0,0,0,.57.57h4L22.88,83.75H40.13Z"/><path class="cls-2" d="M31.5,44.07A12.07,12.07,0,0,0,19.43,56.15V59a12.08,12.08,0,0,1,24.15,0V56.15A12.08,12.08,0,0,0,31.5,44.07Z"/><path class="cls-3" d="M39,66.5h4a.58.58,0,0,0,.58-.57V56.15a12.08,12.08,0,1,0-24.15,0v9.78a.57.57,0,0,0,.57.57h4L22.88,83.75H40.13Z"/><line class="cls-6" x1="24.03" y1="66.5" x2="24.03" y2="53.27"/><line class="cls-6" x1="38.98" y1="66.5" x2="38.98" y2="53.27"/><path class="cls-9" d="M39,68.51a2,2,0,1,0,4,0v-2H39Z"/><ellipse class="cls-11" cx="31.5" cy="87.77" rx="14.95" ry="1.73"/><path class="cls-9" d="M39.24,86.62a1.15,1.15,0,0,0,1-.57,1.18,1.18,0,0,0,0-1.15,3.45,3.45,0,0,0-3-1.72h-.58a3.43,3.43,0,0,0-3,1.72,1.15,1.15,0,0,0,1,1.72Z"/><path class="cls-9" d="M28.32,86.62a1.15,1.15,0,0,0,1-1.72,3.43,3.43,0,0,0-3-1.72h-.58a3.45,3.45,0,0,0-3,1.72,1.18,1.18,0,0,0,0,1.15,1.15,1.15,0,0,0,1,.57Z"/><path class="cls-3" d="M24.29,83.47a5.47,5.47,0,0,1,1.46,3.15c0-1.72,2.3-2.87,2.3-2.87"/><path class="cls-3" d="M38.71,83.47a5.47,5.47,0,0,0-1.46,3.15c0-1.72-2.3-2.87-2.3-2.87"/><rect class="cls-12" x="38.98" y="72.25" width="4.6" height="10.93" rx="1" ry="1"/><path class="cls-13" d="M42.42,81.45h-2.3A1.14,1.14,0,0,1,39,80.3V82a1.15,1.15,0,0,0,1.14,1.16h2.3A1.16,1.16,0,0,0,43.58,82V80.3A1.15,1.15,0,0,1,42.42,81.45Z"/><rect class="cls-3" x="38.98" y="72.25" width="4.6" height="10.93" rx="1" ry="1"/><line class="cls-3" x1="40.99" y1="70.52" x2="40.99" y2="72.25"/><path class="cls-6" d="M31.5,47.52a4,4,0,0,1-1.15-.17V57.3a.58.58,0,0,0,.58.58h1.15a.58.58,0,0,0,.57-.58V47.35A4,4,0,0,1,31.5,47.52Z"/><path class="cls-9" d="M35.32,44.7a11.9,11.9,0,0,0-7.64,0,4,4,0,0,0,7.64,0Z"/><path class="cls-9" d="M39.55,34.88A1.41,1.41,0,0,0,38.4,33.5v-.93a6.9,6.9,0,0,0-13.8,0v.93a1.4,1.4,0,0,0,.14,2.78,6.91,6.91,0,0,0,13.52,0A1.41,1.41,0,0,0,39.55,34.88Z"/><path class="cls-14" d="M31.5,25.68a6.89,6.89,0,0,0-6.9,6.89v.75a2.12,2.12,0,0,1,2.18-1.08c1.24.24,4,.51,4.62.57h.2c.57-.06,3.39-.33,4.63-.57a2.12,2.12,0,0,1,2.17,1.07h0v-.74A6.89,6.89,0,0,0,31.5,25.68Z"/><path class="cls-3" d="M39.55,34.88A1.41,1.41,0,0,0,38.4,33.5v-.93a6.9,6.9,0,0,0-13.8,0v.93a1.4,1.4,0,0,0,.14,2.78,6.91,6.91,0,0,0,13.52,0A1.41,1.41,0,0,0,39.55,34.88Z"/><circle class="cls-14" cx="27.76" cy="35.74" r="0.86"/><circle class="cls-14" cx="35.24" cy="35.74" r="0.86"/><path class="cls-15" d="M35.51,37.63a1.17,1.17,0,0,1-.94-.18,6,6,0,0,0-6.14,0,1.16,1.16,0,0,1-.94.18,5.37,5.37,0,0,1-2.75-1.35c.69,6,4.3,7.79,6.76,7.79s6.07-1.76,6.76-7.79A5.37,5.37,0,0,1,35.51,37.63Z"/><path class="cls-3" d="M29.77,38.93a3.13,3.13,0,0,0,3.45,0"/><path class="cls-16" d="M36.68,25.68a3.23,3.23,0,0,0-3.45-3.45H29.78a3.22,3.22,0,0,0-3.45,3.45c-3.73.93-7.11,8.36-4.59,20.68A1.16,1.16,0,0,0,23.6,47c1.45-1.26,4.66-2.37,6.86-3.05-2.33-.44-5.12-2.47-5.72-7.69a1.4,1.4,0,0,1-.14-2.78V32a2,2,0,0,1,2.3-1.73c.89.18,3.38.45,4.28.55a3.53,3.53,0,0,0,.65,0c.89-.1,3.38-.37,4.27-.55A2,2,0,0,1,38.4,32v1.5a1.4,1.4,0,0,1-.14,2.78c-.6,5.22-3.39,7.25-5.72,7.69,2.2.68,5.41,1.79,6.86,3.05a1.16,1.16,0,0,0,1.86-.66C43.78,34,40.4,26.61,36.68,25.68Z"/><path class="cls-17" d="M31.5,27.4a10.93,10.93,0,0,1,10.28,6.46c-.8-4.79-2.89-7.63-5.1-8.18a3.23,3.23,0,0,0-3.45-3.45H29.78a3.22,3.22,0,0,0-3.45,3.45c-2.22.55-4.3,3.39-5.11,8.18A10.93,10.93,0,0,1,31.5,27.4Z"/><path class="cls-3" d="M36.68,25.68a3.23,3.23,0,0,0-3.45-3.45H29.78a3.22,3.22,0,0,0-3.45,3.45c-3.73.93-7.11,8.36-4.59,20.68A1.16,1.16,0,0,0,23.6,47c1.45-1.26,4.66-2.37,6.86-3.05-2.33-.44-5.12-2.47-5.72-7.69a1.4,1.4,0,0,1-.14-2.78V32a2,2,0,0,1,2.3-1.73c.89.18,3.38.45,4.28.55a3.53,3.53,0,0,0,.65,0c.89-.1,3.38-.37,4.27-.55A2,2,0,0,1,38.4,32v1.5a1.4,1.4,0,0,1-.14,2.78c-.6,5.22-3.39,7.25-5.72,7.69,2.2.68,5.41,1.79,6.86,3.05a1.16,1.16,0,0,0,1.86-.66C43.78,34,40.4,26.61,36.68,25.68Z"/><line class="cls-3" x1="24.6" y1="25.68" x2="38.4" y2="25.68"/><path class="cls-3" d="M34.61,33.73a1,1,0,0,0-1.38,0"/><path class="cls-3" d="M29.78,33.73a1,1,0,0,0-1.39,0"/></svg>