<?xml version="1.0" encoding="utf-8" ?>
<svg xmlns="http://www.w3.org/2000/svg" xmlns:xlink="http://www.w3.org/1999/xlink" width="800" height="450">
	<defs>
		<linearGradient id="gradient_0" gradientUnits="userSpaceOnUse" x1="-195" y1="-116" x2="800" y2="450">
			<stop offset="0" stop-color="rgb(255,255,255)"/>
			<stop offset="1" stop-color="rgb(5,116,164)"/>
		</linearGradient>
	</defs>
	<path fill="url(#gradient_0)" stroke="none" d="M20 0L780 0Q780.512 0 781.021 0.023315Q781.53 0.04663 782.034 0.0932124Q782.539 0.139795 783.038 0.20955Q783.536 0.279305 784.029 0.37209Q784.521 0.464874 785.006 0.5805Q785.491 0.696126 785.967 0.834357Q786.443 0.972587 786.91 1.13314Q787.377 1.29369 787.833 1.47624Q788.29 1.65879 788.735 1.86296Q789.18 2.06714 789.613 2.29252Q790.045 2.51789 790.465 2.76402Q790.884 3.01014 791.29 3.27651Q791.696 3.54288 792.086 3.82895Q792.477 4.11502 792.852 4.42021Q793.227 4.7254 793.586 5.04909Q793.944 5.37277 794.286 5.71429Q794.627 6.0558 794.951 6.41446Q795.275 6.77312 795.58 7.14818Q795.885 7.52324 796.171 7.91394Q796.457 8.30465 796.724 8.71019Q796.99 9.11574 797.236 9.53531Q797.482 9.95487 797.708 10.3876Q797.933 10.8203 798.137 11.2653Q798.341 11.7103 798.524 12.1667Q798.706 12.6231 798.867 13.0899Q799.028 13.5567 799.166 14.033Q799.304 14.5093 799.42 14.9941Q799.535 15.4789 799.628 15.9713Q799.721 16.4636 799.791 16.9625Q799.86 17.4613 799.907 17.9657Q799.953 18.47 799.977 18.9789Q800 19.4877 800 20L800 430Q800 430.512 799.977 431.021Q799.953 431.53 799.907 432.034Q799.86 432.539 799.791 433.038Q799.721 433.536 799.628 434.029Q799.535 434.521 799.42 435.006Q799.304 435.491 799.166 435.967Q799.028 436.443 798.867 436.91Q798.706 437.377 798.524 437.833Q798.341 438.29 798.137 438.735Q797.933 439.18 797.708 439.612Q797.482 440.045 797.236 440.465Q796.99 440.884 796.724 441.29Q796.457 441.695 796.171 442.086Q795.885 442.477 795.58 442.852Q795.275 443.227 794.951 443.586Q794.627 443.944 794.286 444.286Q793.944 444.627 793.586 444.951Q793.227 445.275 792.852 445.58Q792.477 445.885 792.086 446.171Q791.696 446.457 791.29 446.723Q790.884 446.99 790.465 447.236Q790.045 447.482 789.613 447.707Q789.18 447.933 788.735 448.137Q788.29 448.341 787.833 448.524Q787.377 448.706 786.91 448.867Q786.443 449.027 785.967 449.166Q785.491 449.304 785.006 449.42Q784.521 449.535 784.029 449.628Q783.536 449.721 783.038 449.79Q782.539 449.86 782.034 449.907Q781.53 449.953 781.021 449.977Q780.512 450 780 450L20 450Q19.4877 450 18.9789 449.977Q18.47 449.953 17.9657 449.907Q17.4613 449.86 16.9625 449.79Q16.4636 449.721 15.9713 449.628Q15.4789 449.535 14.9941 449.42Q14.5093 449.304 14.033 449.166Q13.5567 449.027 13.0899 448.867Q12.6231 448.706 12.1667 448.524Q11.7103 448.341 11.2653 448.137Q10.8203 447.933 10.3876 447.707Q9.95487 447.482 9.53531 447.236Q9.11574 446.99 8.71019 446.724Q8.30465 446.457 7.91394 446.171Q7.52324 445.885 7.14818 445.58Q6.77312 445.275 6.41446 444.951Q6.0558 444.627 5.71429 444.286Q5.37277 443.944 5.04909 443.586Q4.7254 443.227 4.42021 442.852Q4.11503 442.477 3.82895 442.086Q3.54288 441.695 3.27651 441.29Q3.01014 440.884 2.76402 440.465Q2.51789 440.045 2.29252 439.612Q2.06714 439.18 1.86296 438.735Q1.65879 438.29 1.47624 437.833Q1.29369 437.377 1.13314 436.91Q0.972587 436.443 0.834357 435.967Q0.696126 435.491 0.5805 435.006Q0.464874 434.521 0.37209 434.029Q0.279305 433.536 0.20955 433.038Q0.139795 432.539 0.0932124 432.034Q0.04663 431.53 0.023315 431.021Q0 430.512 0 430L0 20Q0 19.4877 0.023315 18.9789Q0.04663 18.47 0.0932124 17.9657Q0.139795 17.4613 0.20955 16.9625Q0.279305 16.4636 0.37209 15.9713Q0.464874 15.4789 0.5805 14.9941Q0.696126 14.5093 0.834357 14.033Q0.972587 13.5567 1.13314 13.0899Q1.29369 12.6231 1.47624 12.1667Q1.65879 11.7103 1.86296 11.2653Q2.06714 10.8203 2.29252 10.3876Q2.51789 9.95487 2.76402 9.53531Q3.01014 9.11574 3.27651 8.71019Q3.54288 8.30465 3.82895 7.91394Q4.11502 7.52324 4.42021 7.14818Q4.7254 6.77312 5.04909 6.41446Q5.37277 6.0558 5.71429 5.71429Q6.0558 5.37277 6.41446 5.04909Q6.77312 4.7254 7.14818 4.42021Q7.52324 4.11503 7.91394 3.82895Q8.30465 3.54288 8.71019 3.27651Q9.11574 3.01014 9.53531 2.76402Q9.95487 2.51789 10.3876 2.29252Q10.8203 2.06714 11.2653 1.86296Q11.7103 1.65879 12.1667 1.47624Q12.6231 1.29369 13.0899 1.13314Q13.5567 0.972587 14.033 0.834357Q14.5093 0.696126 14.9941 0.5805Q15.4789 0.464874 15.9713 0.37209Q16.4636 0.279305 16.9625 0.20955Q17.4613 0.139795 17.9657 0.0932124Q18.47 0.04663 18.9789 0.023315Q19.4877 0 20 0Z"/>
	<defs>
		<linearGradient id="gradient_1" gradientUnits="userSpaceOnUse" x1="407.00003" y1="-169" x2="399.12839" y2="451.3446">
			<stop offset="0" stop-color="rgb(133,119,119)"/>
			<stop offset="1" stop-color="rgb(0,0,0)"/>
		</linearGradient>
	</defs>
	<path fill="url(#gradient_1)" stroke="none" d="M20 0L780 0Q780.512 0 781.021 0.023315Q781.53 0.04663 782.034 0.0932124Q782.539 0.139795 783.038 0.20955Q783.536 0.279305 784.029 0.37209Q784.521 0.464874 785.006 0.5805Q785.491 0.696126 785.967 0.834357Q786.443 0.972587 786.91 1.13314Q787.377 1.29369 787.833 1.47624Q788.29 1.65879 788.735 1.86296Q789.18 2.06714 789.613 2.29252Q790.045 2.51789 790.465 2.76402Q790.884 3.01014 791.29 3.27651Q791.696 3.54288 792.086 3.82895Q792.477 4.11502 792.852 4.42021Q793.227 4.7254 793.586 5.04909Q793.944 5.37277 794.286 5.71429Q794.627 6.0558 794.951 6.41446Q795.275 6.77312 795.58 7.14818Q795.885 7.52324 796.171 7.91394Q796.457 8.30465 796.724 8.71019Q796.99 9.11574 797.236 9.53531Q797.482 9.95487 797.708 10.3876Q797.933 10.8203 798.137 11.2653Q798.341 11.7103 798.524 12.1667Q798.706 12.6231 798.867 13.0899Q799.028 13.5567 799.166 14.033Q799.304 14.5093 799.42 14.9941Q799.535 15.4789 799.628 15.9713Q799.721 16.4636 799.791 16.9625Q799.86 17.4613 799.907 17.9657Q799.953 18.47 799.977 18.9789Q800 19.4877 800 20L800 430Q800 430.512 799.977 431.021Q799.953 431.53 799.907 432.034Q799.86 432.539 799.791 433.038Q799.721 433.536 799.628 434.029Q799.535 434.521 799.42 435.006Q799.304 435.491 799.166 435.967Q799.028 436.443 798.867 436.91Q798.706 437.377 798.524 437.833Q798.341 438.29 798.137 438.735Q797.933 439.18 797.708 439.612Q797.482 440.045 797.236 440.465Q796.99 440.884 796.724 441.29Q796.457 441.695 796.171 442.086Q795.885 442.477 795.58 442.852Q795.275 443.227 794.951 443.586Q794.627 443.944 794.286 444.286Q793.944 444.627 793.586 444.951Q793.227 445.275 792.852 445.58Q792.477 445.885 792.086 446.171Q791.696 446.457 791.29 446.723Q790.884 446.99 790.465 447.236Q790.045 447.482 789.613 447.707Q789.18 447.933 788.735 448.137Q788.29 448.341 787.833 448.524Q787.377 448.706 786.91 448.867Q786.443 449.027 785.967 449.166Q785.491 449.304 785.006 449.42Q784.521 449.535 784.029 449.628Q783.536 449.721 783.038 449.79Q782.539 449.86 782.034 449.907Q781.53 449.953 781.021 449.977Q780.512 450 780 450L20 450Q19.4877 450 18.9789 449.977Q18.47 449.953 17.9657 449.907Q17.4613 449.86 16.9625 449.79Q16.4636 449.721 15.9713 449.628Q15.4789 449.535 14.9941 449.42Q14.5093 449.304 14.033 449.166Q13.5567 449.027 13.0899 448.867Q12.6231 448.706 12.1667 448.524Q11.7103 448.341 11.2653 448.137Q10.8203 447.933 10.3876 447.707Q9.95487 447.482 9.53531 447.236Q9.11574 446.99 8.71019 446.724Q8.30465 446.457 7.91394 446.171Q7.52324 445.885 7.14818 445.58Q6.77312 445.275 6.41446 444.951Q6.0558 444.627 5.71429 444.286Q5.37277 443.944 5.04909 443.586Q4.7254 443.227 4.42021 442.852Q4.11503 442.477 3.82895 442.086Q3.54288 441.695 3.27651 441.29Q3.01014 440.884 2.76402 440.465Q2.51789 440.045 2.29252 439.612Q2.06714 439.18 1.86296 438.735Q1.65879 438.29 1.47624 437.833Q1.29369 437.377 1.13314 436.91Q0.972587 436.443 0.834357 435.967Q0.696126 435.491 0.5805 435.006Q0.464874 434.521 0.37209 434.029Q0.279305 433.536 0.20955 433.038Q0.139795 432.539 0.0932124 432.034Q0.04663 431.53 0.023315 431.021Q0 430.512 0 430L0 20Q0 19.4877 0.023315 18.9789Q0.04663 18.47 0.0932124 17.9657Q0.139795 17.4613 0.20955 16.9625Q0.279305 16.4636 0.37209 15.9713Q0.464874 15.4789 0.5805 14.9941Q0.696126 14.5093 0.834357 14.033Q0.972587 13.5567 1.13314 13.0899Q1.29369 12.6231 1.47624 12.1667Q1.65879 11.7103 1.86296 11.2653Q2.06714 10.8203 2.29252 10.3876Q2.51789 9.95487 2.76402 9.53531Q3.01014 9.11574 3.27651 8.71019Q3.54288 8.30465 3.82895 7.91394Q4.11502 7.52324 4.42021 7.14818Q4.7254 6.77312 5.04909 6.41446Q5.37277 6.0558 5.71429 5.71429Q6.0558 5.37277 6.41446 5.04909Q6.77312 4.7254 7.14818 4.42021Q7.52324 4.11503 7.91394 3.82895Q8.30465 3.54288 8.71019 3.27651Q9.11574 3.01014 9.53531 2.76402Q9.95487 2.51789 10.3876 2.29252Q10.8203 2.06714 11.2653 1.86296Q11.7103 1.65879 12.1667 1.47624Q12.6231 1.29369 13.0899 1.13314Q13.5567 0.972587 14.033 0.834357Q14.5093 0.696126 14.9941 0.5805Q15.4789 0.464874 15.9713 0.37209Q16.4636 0.279305 16.9625 0.20955Q17.4613 0.139795 17.9657 0.0932124Q18.47 0.04663 18.9789 0.023315Q19.4877 0 20 0Z"/>
	<defs>
		<linearGradient id="gradient_2" gradientUnits="userSpaceOnUse" x1="103.99997" y1="8.5" x2="104" y2="-41.000008">
			<stop offset="0" stop-color="rgb(255,255,255)"/>
			<stop offset="0.18241882" stop-color="rgb(159,157,157)"/>
			<stop offset="1" stop-color="rgb(43,39,39)"/>
		</linearGradient>
	</defs>
	<path fill="url(#gradient_2)" stroke="none" transform="translate(300 168.75)" d="M20 0L180 0Q180.512 0 181.021 0.023315Q181.53 0.04663 182.034 0.0932124Q182.539 0.139795 183.038 0.20955Q183.536 0.279305 184.029 0.37209Q184.521 0.464874 185.006 0.5805Q185.491 0.696126 185.967 0.834357Q186.443 0.972587 186.91 1.13314Q187.377 1.29369 187.833 1.47624Q188.29 1.65879 188.735 1.86296Q189.18 2.06714 189.612 2.29252Q190.045 2.51789 190.465 2.76402Q190.884 3.01014 191.29 3.27651Q191.695 3.54288 192.086 3.82895Q192.477 4.11502 192.852 4.42021Q193.227 4.7254 193.586 5.04909Q193.944 5.37277 194.286 5.71429Q194.627 6.0558 194.951 6.41446Q195.275 6.77312 195.58 7.14818Q195.885 7.52324 196.171 7.91394Q196.457 8.30465 196.724 8.71019Q196.99 9.11574 197.236 9.53531Q197.482 9.95487 197.708 10.3876Q197.933 10.8203 198.137 11.2653Q198.341 11.7103 198.524 12.1667Q198.706 12.6231 198.867 13.0899Q199.027 13.5567 199.166 14.033Q199.304 14.5093 199.42 14.9941Q199.535 15.4789 199.628 15.9713Q199.721 16.4636 199.79 16.9625Q199.86 17.4613 199.907 17.9657Q199.953 18.47 199.977 18.9789Q200 19.4877 200 20L200 92.5Q200 93.0123 199.977 93.5211Q199.953 94.03 199.907 94.5343Q199.86 95.0387 199.79 95.5376Q199.721 96.0364 199.628 96.5287Q199.535 97.0211 199.42 97.5059Q199.304 97.9907 199.166 98.467Q199.027 98.9433 198.867 99.4101Q198.706 99.8769 198.524 100.333Q198.341 100.79 198.137 101.235Q197.933 101.68 197.708 102.112Q197.482 102.545 197.236 102.965Q196.99 103.384 196.723 103.79Q196.457 104.195 196.171 104.586Q195.885 104.977 195.58 105.352Q195.275 105.727 194.951 106.086Q194.627 106.444 194.286 106.786Q193.944 107.127 193.586 107.451Q193.227 107.775 192.852 108.08Q192.477 108.385 192.086 108.671Q191.695 108.957 191.29 109.224Q190.884 109.49 190.465 109.736Q190.045 109.982 189.612 110.208Q189.18 110.433 188.735 110.637Q188.29 110.841 187.833 111.024Q187.377 111.206 186.91 111.367Q186.443 111.527 185.967 111.666Q185.491 111.804 185.006 111.92Q184.521 112.035 184.029 112.128Q183.536 112.221 183.038 112.29Q182.539 112.36 182.034 112.407Q181.53 112.453 181.021 112.477Q180.512 112.5 180 112.5L20 112.5Q19.4877 112.5 18.9789 112.477Q18.47 112.453 17.9657 112.407Q17.4613 112.36 16.9625 112.29Q16.4636 112.221 15.9713 112.128Q15.4789 112.035 14.9941 111.92Q14.5093 111.804 14.033 111.666Q13.5567 111.527 13.0899 111.367Q12.6231 111.206 12.1667 111.024Q11.7103 110.841 11.2653 110.637Q10.8203 110.433 10.3876 110.207Q9.95487 109.982 9.53531 109.736Q9.11574 109.49 8.71019 109.223Q8.30465 108.957 7.91394 108.671Q7.52324 108.385 7.14818 108.08Q6.77312 107.775 6.41446 107.451Q6.0558 107.127 5.71429 106.786Q5.37277 106.444 5.04909 106.086Q4.7254 105.727 4.42021 105.352Q4.11503 104.977 3.82895 104.586Q3.54288 104.195 3.27651 103.79Q3.01014 103.384 2.76402 102.965Q2.51789 102.545 2.29252 102.112Q2.06714 101.68 1.86296 101.235Q1.65879 100.79 1.47624 100.333Q1.29369 99.8769 1.13314 99.4101Q0.972587 98.9433 0.834357 98.467Q0.696126 97.9907 0.5805 97.5059Q0.464874 97.0211 0.37209 96.5287Q0.279305 96.0364 0.20955 95.5376Q0.139795 95.0387 0.0932124 94.5343Q0.04663 94.03 0.023315 93.5211Q0 93.0123 0 92.5L0 20Q0 19.4877 0.023315 18.9789Q0.04663 18.47 0.0932124 17.9657Q0.139795 17.4613 0.20955 16.9625Q0.279305 16.4636 0.37209 15.9713Q0.464874 15.4789 0.5805 14.9941Q0.696126 14.5093 0.834357 14.033Q0.972587 13.5567 1.13314 13.0899Q1.29369 12.6231 1.47624 12.1667Q1.65879 11.7103 1.86296 11.2653Q2.06714 10.8203 2.29252 10.3876Q2.51789 9.95487 2.76402 9.53531Q3.01014 9.11574 3.27651 8.71019Q3.54288 8.30465 3.82895 7.91394Q4.11502 7.52324 4.42021 7.14818Q4.7254 6.77312 5.04909 6.41446Q5.37277 6.0558 5.71429 5.71429Q6.0558 5.37277 6.41446 5.04909Q6.77312 4.7254 7.14818 4.42021Q7.52324 4.11503 7.91394 3.82895Q8.30465 3.54288 8.71019 3.27651Q9.11574 3.01014 9.53531 2.76402Q9.95487 2.51789 10.3876 2.29252Q10.8203 2.06714 11.2653 1.86296Q11.7103 1.65879 12.1667 1.47624Q12.6231 1.29369 13.0899 1.13314Q13.5567 0.972587 14.033 0.834357Q14.5093 0.696126 14.9941 0.5805Q15.4789 0.464874 15.9713 0.37209Q16.4636 0.279305 16.9625 0.20955Q17.4613 0.139795 17.9657 0.0932124Q18.47 0.04663 18.9789 0.023315Q19.4877 0 20 0Z"/>
</svg>
