<svg version="1.1" viewBox="0.0 0.0 960.0 720.0" fill="none" stroke="none" stroke-linecap="square" stroke-miterlimit="10" xmlns:xlink="http://www.w3.org/1999/xlink" xmlns="http://www.w3.org/2000/svg"><clipPath id="p.0"><path d="m0 0l960.0 0l0 720.0l-960.0 0l0 -720.0z" clip-rule="nonzero"/></clipPath><g clip-path="url(#p.0)"><path fill="#03052d" d="m0 0l960.0 0l0 720.0l-960.0 0z" fill-rule="evenodd"/><defs><linearGradient id="p.1" gradientUnits="userSpaceOnUse" gradientTransform="matrix(-7.453879959051389 0.0 0.0 -7.453879959051389 0.0 0.0)" spreadMethod="pad" x1="-71.46952642058487" y1="-45.25471648302959" x2="-71.46955393008255" y2="-37.800836524028966"><stop offset="0.0" stop-color="#f2f2f2"/><stop offset="1.0" stop-color="#a6a6a6"/></linearGradient></defs><path fill="url(#p.1)" d="m523.46436 337.32285l-86.92874 0c-2.455902 0 -4.8112183 -0.97561646 -6.547821 -2.7122192c-1.7366028 -1.7365723 -2.7121887 -4.091919 -2.7121887 -6.547821l0 -46.29901c0 -4.8828125E-4 3.6621094E-4 -8.8500977E-4 8.544922E-4 -8.8500977E-4l105.44797 8.8500977E-4l0 0c4.8828125E-4 0 8.544922E-4 3.6621094E-4 8.544922E-4 8.544922E-4l-8.544922E-4 46.298157l0 0c0 5.1141663 -4.145874 9.26004 -9.260071 9.26004z" fill-rule="evenodd"/><g filter="url(#shadowFilter-p.2)"><use xlink:href="#p.2" transform="matrix(1.0 0.0 0.0 1.0 0.0 2.0)"/></g><defs><filter id="shadowFilter-p.2" filterUnits="userSpaceOnUse"><feGaussianBlur in="SourceAlpha" stdDeviation="2.0" result="blur"/><feComponentTransfer in="blur" color-interpolation-filters="sRGB"><feFuncR type="linear" slope="0" intercept="0.0"/><feFuncG type="linear" slope="0" intercept="0.0"/><feFuncB type="linear" slope="0" intercept="0.0"/><feFuncA type="linear" slope="0.5" intercept="0"/></feComponentTransfer></filter></defs><g id="p.2"><path fill="#d9d9d9" d="m362.07874 152.81706l0 0c0 -4.1737366 3.383484 -7.5572205 7.5572205 -7.5572205l220.72806 0c2.0043335 0 3.9265137 0.7962036 5.343811 2.2134552c1.4172363 1.4172516 2.21344 3.3394623 2.21344 5.3437653l0 140.22414c0 4.1737366 -3.383484 7.5572205 -7.557251 7.5572205l-220.72806 0l0 0c-4.1737366 0 -7.5572205 -3.383484 -7.5572205 -7.5572205z" fill-rule="evenodd"/></g><defs><linearGradient id="p.3" gradientUnits="userSpaceOnUse" gradientTransform="matrix(12.099429839317159 0.0 0.0 12.099429839317159 0.0 0.0)" spreadMethod="pad" x1="49.05808050729646" y1="24.47458184600711" x2="49.05821269612437" y2="12.375152007412044"><stop offset="0.0" stop-color="#000000"/><stop offset="1.0" stop-color="#434343"/></linearGradient></defs><path fill="url(#p.3)" d="m366.4252 156.85434l0 0c0 -3.9334106 3.1886597 -7.122055 7.12204 -7.122055l212.90552 0c1.888855 0 3.7003784 0.75035095 5.036072 2.0859985c1.3356323 1.3356476 2.0859985 3.147171 2.0859985 5.0360565l0 132.1496c0 3.9334106 -3.1886597 7.12204 -7.1220703 7.12204l-212.90552 0l0 0c-3.9333801 0 -7.12204 -3.1886292 -7.12204 -7.12204z" fill-rule="evenodd"/><path fill="#cccccc" d="m560.22046 327.68503l32.881897 0c1.2780762 0 2.5037842 0.50772095 3.4074707 1.411438c0.90374756 0.90371704 1.411438 2.129425 1.411438 3.4074707l0 4.8189087c0 1.8310547E-4 -1.8310547E-4 3.3569336E-4 -3.6621094E-4 3.3569336E-4l-42.51935 -3.3569336E-4l0 0c-1.8310547E-4 0 -3.0517578E-4 -1.8310547E-4 -3.0517578E-4 -3.6621094E-4l3.0517578E-4 -4.8185425l0 0c0 -2.6614075 2.1575317 -4.8189087 4.8189087 -4.8189087z" fill-rule="evenodd"/><path fill="#cccccc" d="m366.89764 327.68503l144.18896 0c1.2780762 0 2.5037842 0.50772095 3.4074707 1.411438c0.90374756 0.90371704 1.411438 2.129425 1.411438 3.4074707l0 4.8189087c0 7.019043E-4 -5.493164E-4 0.0012817383 -0.0012817383 0.0012817383l-153.8255 -0.0012817383l0 0c-7.019043E-4 0 -0.0012817383 -5.79834E-4 -0.0012817383 -0.0012817383l0.0012817383 -4.817627l0 0c0 -2.6614075 2.1575012 -4.8189087 4.8189087 -4.8189087z" fill-rule="evenodd"/><path fill="#372108" d="m202.58258 340.15747l554.83484 0c2.8233643 0 5.531128 1.121582 7.527588 3.1180115c1.9963989 1.9964294 3.117981 4.704193 3.117981 7.5275574l0 34.70877c0 0.0026550293 -0.0021362305 0.0047912598 -0.0048217773 0.0047912598l-576.12115 -0.0047912598l0 0c-0.0026550293 0 -0.0048065186 -0.0021362305 -0.0048065186 -0.0047912598l0.0048065186 -34.70398l0 0c0 -5.879364 4.7661743 -10.645569 10.645569 -10.645569z" fill-rule="evenodd"/><g filter="url(#shadowFilter-p.4)"><use xlink:href="#p.4" transform="matrix(1.0 0.0 0.0 1.0 0.0 2.0)"/></g><defs><filter id="shadowFilter-p.4" filterUnits="userSpaceOnUse"><feGaussianBlur in="SourceAlpha" stdDeviation="2.0" result="blur"/><feComponentTransfer in="blur" color-interpolation-filters="sRGB"><feFuncR type="linear" slope="0" intercept="0.0"/><feFuncG type="linear" slope="0" intercept="0.0"/><feFuncB type="linear" slope="0" intercept="0.0"/><feFuncA type="linear" slope="0.5" intercept="0"/></feComponentTransfer></filter></defs><g id="p.4"><defs><linearGradient id="p.5" gradientUnits="userSpaceOnUse" gradientTransform="matrix(14.270495667549707 0.0 0.0 14.270495667549707 0.0 0.0)" spreadMethod="pad" x1="52.66972143127522" y1="-3.3724126163565074" x2="42.57890275148552" y2="6.718297218395568"><stop offset="0.0" stop-color="#ffff00"/><stop offset="1.0" stop-color="#f1c232"/></linearGradient></defs><path fill="url(#p.5)" d="m661.4803 149.73228l19.274841 -107.71654l161.00867 0l-19.274841 107.71654z" fill-rule="evenodd"/></g><g filter="url(#shadowFilter-p.6)"><use xlink:href="#p.6" transform="matrix(1.0 0.0 0.0 1.0 0.0 2.0)"/></g><defs><filter id="shadowFilter-p.6" filterUnits="userSpaceOnUse"><feGaussianBlur in="SourceAlpha" stdDeviation="2.0" result="blur"/><feComponentTransfer in="blur" color-interpolation-filters="sRGB"><feFuncR type="linear" slope="0" intercept="0.0"/><feFuncG type="linear" slope="0" intercept="0.0"/><feFuncB type="linear" slope="0" intercept="0.0"/><feFuncA type="linear" slope="0.5" intercept="0"/></feComponentTransfer></filter></defs><g id="p.6"><defs><linearGradient id="p.7" gradientUnits="userSpaceOnUse" gradientTransform="matrix(14.270495540545333 0.0 0.0 14.270495540545333 0.0 0.0)" spreadMethod="pad" x1="51.010001023283785" y1="5.530931538713161" x2="40.91918225368796" y2="15.621641104045857"><stop offset="0.0" stop-color="#ffff00"/><stop offset="1.0" stop-color="#f1c232"/></linearGradient></defs><path fill="url(#p.7)" d="m637.7953 276.7874l19.27478 -107.71655l161.00867 0l-19.27478 107.71655z" fill-rule="evenodd"/></g><path fill="#000000" d="m31.937647 528.3779l896.12476 0c8.470337 0 16.593811 3.3648682 22.583313 9.35437c5.989441 5.989441 9.354309 14.112915 9.354309 22.583313l0 159.68439c0 0.0043945312 -0.0036010742 0.0079956055 -0.0079956055 0.0079956055l-959.992 -0.0079956055l1.3780371E-18 0c-0.004418278 0 -0.008 -0.0036010742 -0.008 -0.0079956055l0.008 -159.67639l0 0c0 -17.638672 14.298971 -31.937683 31.937647 -31.937683z" fill-rule="evenodd"/><path fill="#372108" d="m735.1811 366.2362l32.881897 0l0 282.89764l-32.881897 0z" fill-rule="evenodd"/><path fill="#372108" d="m191.93701 366.2362l32.88188 0l0 282.89764l-32.88188 0z" fill-rule="evenodd"/><g filter="url(#shadowFilter-p.8)"><use xlink:href="#p.8" transform="matrix(1.0 0.0 0.0 1.0 0.0 2.0)"/></g><defs><filter id="shadowFilter-p.8" filterUnits="userSpaceOnUse"><feGaussianBlur in="SourceAlpha" stdDeviation="2.0" result="blur"/><feComponentTransfer in="blur" color-interpolation-filters="sRGB"><feFuncR type="linear" slope="0" intercept="0.0"/><feFuncG type="linear" slope="0" intercept="0.0"/><feFuncB type="linear" slope="0" intercept="0.0"/><feFuncA type="linear" slope="0.5" intercept="0"/></feComponentTransfer></filter></defs><g id="p.8"><defs><linearGradient id="p.9" gradientUnits="userSpaceOnUse" gradientTransform="matrix(14.270494651514769 0.0 0.0 14.270494651514769 0.0 0.0)" spreadMethod="pad" x1="64.58793434716065" y1="5.5309315240573875" x2="54.49711494892184" y2="15.621639203454254"><stop offset="0.0" stop-color="#ffff00"/><stop offset="1.0" stop-color="#f1c232"/></linearGradient></defs><path fill="url(#p.9)" d="m831.5591 276.7874l19.27478 -107.71655l161.00867 0l-19.27478 107.71655z" fill-rule="evenodd"/></g><g filter="url(#shadowFilter-p.10)"><use xlink:href="#p.10" transform="matrix(1.0 0.0 0.0 1.0 0.0 2.0)"/></g><defs><filter id="shadowFilter-p.10" filterUnits="userSpaceOnUse"><feGaussianBlur in="SourceAlpha" stdDeviation="2.0" result="blur"/><feComponentTransfer in="blur" color-interpolation-filters="sRGB"><feFuncR type="linear" slope="0" intercept="0.0"/><feFuncG type="linear" slope="0" intercept="0.0"/><feFuncB type="linear" slope="0" intercept="0.0"/><feFuncA type="linear" slope="0.5" intercept="0"/></feComponentTransfer></filter></defs><g id="p.10"><defs><linearGradient id="p.11" gradientUnits="userSpaceOnUse" gradientTransform="matrix(14.270495032527863 0.0 0.0 14.270495032527863 0.0 0.0)" spreadMethod="pad" x1="66.18585543857856" y1="-3.3724116887515923" x2="56.095036309758164" y2="6.71829679890352"><stop offset="0.0" stop-color="#ffff00"/><stop offset="1.0" stop-color="#f1c232"/></linearGradient></defs><path fill="url(#p.11)" d="m854.3622 149.73228l19.274841 -107.71654l161.0086 0l-19.27478 107.71654z" fill-rule="evenodd"/></g></g></svg>