<?xml version="1.0" standalone="no"?>
<!DOCTYPE svg PUBLIC "-//W3C//DTD SVG 20010904//EN"
 "http://www.w3.org/TR/2001/REC-SVG-20010904/DTD/svg10.dtd">
<svg version="1.0" xmlns="http://www.w3.org/2000/svg"
 width="960.000000pt" height="960.000000pt" viewBox="0 0 960.000000 960.000000"
 preserveAspectRatio="xMidYMid meet">
<metadata>
Created by potrace 1.11, written by Peter Selinger 2001-2013
</metadata>
<g transform="translate(0.000000,960.000000) scale(0.100000,-0.100000)"
fill="#000000" stroke="none">
<path d="M239 8396 c-2 -3 -16 -6 -29 -8 -74 -11 -190 -119 -192 -178 0 -3 -4
-10 -9 -16 -8 -10 -7 -5387 2 -5441 1 -12 7 -19 11 -17 4 3 8 0 8 -6 0 -6 7
-18 15 -27 8 -8 12 -20 8 -26 -3 -7 -3 -9 1 -5 10 9 48 -30 41 -42 -4 -6 1 -7
11 -3 10 4 15 2 11 -3 -3 -5 6 -11 20 -12 34 -3 43 -10 36 -27 -3 -8 0 -15 7
-15 6 0 8 5 4 11 -4 7 0 9 14 5 11 -4 30 -9 41 -11 12 -2 26 -7 33 -11 7 -4 8
-3 4 4 -11 18 5 14 26 -5 18 -16 18 -16 12 3 -7 17 -6 17 9 5 12 -9 17 -10 17
-2 0 7 5 9 10 6 6 -4 8 -12 4 -18 -3 -7 2 -3 10 7 14 18 21 15 17 -7 -1 -5 3
-6 9 -2 6 3 8 11 5 16 -4 5 -2 9 4 9 5 0 15 -8 20 -17 9 -16 10 -16 11 -1 0
12 8 15 36 13 19 -2 42 -9 50 -16 12 -10 13 -9 8 7 -7 19 -7 19 14 0 20 -18
22 -18 28 -1 7 17 8 17 22 -1 14 -18 14 -18 8 -1 -5 15 -2 17 17 11 12 -4 25
-12 29 -18 5 -7 8 -4 8 7 0 20 4 21 32 6 16 -9 19 -8 13 2 -6 9 -3 11 9 6 10
-4 20 -7 22 -7 3 0 2 -6 -1 -12 -4 -7 1 -4 9 6 14 17 20 16 18 -5 -1 -3 5 -6
13 -6 8 0 11 7 7 16 -5 14 -4 14 13 1 14 -11 17 -12 11 -1 -6 9 -4 12 5 9 8
-3 14 -10 14 -16 0 -5 4 -14 8 -19 5 -4 8 -3 7 2 -6 27 2 33 37 30 20 -2 40
-10 44 -17 7 -10 9 -8 9 6 0 15 3 16 15 6 11 -9 15 -9 15 -1 0 7 5 9 10 6 6
-4 7 -11 4 -17 -4 -7 -2 -8 5 -4 6 4 8 12 5 18 -4 6 -1 8 7 6 8 -3 13 -10 12
-16 -3 -12 23 -10 34 3 4 4 2 5 -4 1 -7 -4 -13 -3 -13 2 0 15 72 5 81 -10 6
-9 9 -8 9 7 1 20 1 20 15 1 13 -17 15 -18 15 -3 0 20 4 21 32 6 16 -9 19 -8
13 2 -6 9 -3 11 9 6 10 -4 20 -7 22 -7 3 0 2 -6 -1 -13 -4 -6 1 -3 9 7 14 17
20 16 18 -5 -1 -3 5 -6 13 -6 7 0 11 5 9 12 -3 6 7 11 25 10 16 0 27 -4 24
-10 -3 -5 0 -5 7 2 11 10 16 9 25 -4 10 -13 14 -13 20 -3 5 9 4 11 -3 6 -7 -4
-12 -3 -12 2 0 5 16 8 35 8 27 -1 34 -5 30 -16 -4 -12 -3 -12 7 1 14 17 69 20
80 4 5 -6 8 -5 8 3 0 6 5 12 11 12 5 0 7 -5 3 -11 -4 -7 1 -7 16 1 18 10 21
10 15 -2 -6 -10 -5 -10 5 -1 11 10 16 9 25 -4 10 -13 14 -13 20 -3 5 9 4 11
-3 6 -7 -4 -12 -3 -12 2 0 6 11 9 24 8 13 0 22 -5 19 -11 -3 -5 0 -5 7 2 11
10 16 9 25 -4 10 -13 14 -13 20 -3 5 9 4 11 -3 6 -7 -4 -12 -3 -12 2 0 5 16 8
35 8 27 -1 34 -5 30 -16 -4 -12 -3 -12 7 1 14 17 69 20 80 4 5 -6 8 -5 8 3 0
6 5 12 11 12 5 0 7 -5 3 -11 -4 -7 1 -7 16 1 18 10 21 10 15 -2 -6 -10 -5 -10
5 -1 11 10 16 9 25 -4 10 -13 14 -13 20 -3 5 9 4 11 -3 6 -7 -4 -12 -2 -12 3
0 15 23 14 38 -1 9 -9 12 -9 12 0 0 7 5 12 11 12 5 0 7 -4 4 -10 -4 -6 2 -7
17 -1 29 10 52 3 41 -13 -4 -7 0 -3 10 7 16 18 21 16 18 -8 -1 -5 6 -1 14 9
14 18 20 15 16 -7 -1 -5 3 -6 9 -2 6 3 7 11 4 17 -4 6 -1 8 7 6 8 -3 13 -12
11 -19 -2 -10 1 -10 10 2 16 19 77 17 89 -3 7 -10 9 -8 9 6 0 18 1 18 23 -2
18 -17 24 -19 24 -8 0 8 -4 13 -9 10 -4 -3 -8 -1 -8 4 0 8 29 9 73 3 5 -1 5
-7 2 -13 -4 -7 1 -4 9 6 15 18 20 15 17 -9 -1 -5 5 -2 12 7 13 16 15 16 32 0
18 -16 18 -16 6 1 -15 19 -2 24 17 5 14 -14 44 -20 36 -7 -3 5 -10 7 -15 4 -5
-4 -9 -2 -9 3 0 11 62 8 80 -3 5 -3 10 -1 10 5 0 6 5 8 10 5 6 -4 8 -12 4 -18
-3 -7 1 -4 9 5 10 13 16 15 25 6 9 -9 12 -9 12 1 0 7 5 9 10 6 6 -4 8 -12 4
-18 -3 -7 1 -4 9 6 15 18 16 18 27 0 10 -16 11 -16 6 0 -3 9 -2 17 3 17 5 0
10 -12 12 -27 3 -23 3 -879 0 -966 l-1 -27 -97 1 c-54 1 -102 1 -108 -1 -5 -1
-14 -1 -20 0 -14 2 -288 3 -300 0 -5 -1 -14 -2 -20 -1 -14 3 -978 3 -990 1 -5
-1 -12 -2 -15 -1 -7 3 -563 3 -575 1 -5 -1 -14 -1 -20 0 -17 3 -329 0 -355 -4
-40 -6 -73 -23 -98 -49 -40 -45 -52 -89 -52 -202 l0 -105 3325 0 3324 0 64 23
c35 13 72 30 81 38 68 56 117 121 131 174 4 17 10 37 13 45 2 8 5 254 6 546 1
291 5 535 9 540 7 11 87 12 105 0 7 -4 12 -2 12 3 0 6 5 11 11 11 5 0 7 -4 4
-10 -4 -6 2 -7 17 -1 29 10 52 3 41 -13 -4 -7 0 -3 10 7 16 18 21 16 18 -8 -1
-5 6 -1 14 9 14 18 20 15 16 -7 -1 -5 3 -6 9 -2 6 3 7 11 4 17 -4 6 -1 8 7 6
8 -3 13 -12 11 -19 -2 -10 1 -10 10 2 16 19 77 17 89 -3 7 -10 9 -8 9 6 0 18
1 18 23 -2 18 -17 24 -19 24 -8 0 8 -4 13 -9 10 -4 -3 -8 -1 -8 4 0 8 29 9 73
3 5 -1 5 -7 2 -13 -4 -7 1 -4 9 6 15 18 20 15 17 -9 -1 -5 5 -2 12 7 13 16 15
16 32 0 18 -16 18 -16 6 1 -15 19 -2 24 17 5 14 -14 44 -20 36 -7 -3 5 -10 7
-15 4 -5 -4 -9 -2 -9 3 0 11 62 8 80 -3 5 -3 10 -1 10 5 0 6 5 8 10 5 6 -4 8
-12 4 -18 -3 -7 2 -3 10 7 14 18 21 15 17 -7 -1 -5 3 -6 9 -2 6 3 7 11 4 17
-4 6 -1 8 7 6 8 -3 13 -12 11 -19 -2 -10 1 -10 10 2 16 19 77 17 89 -3 7 -10
9 -8 9 6 0 18 1 18 23 -2 18 -17 24 -19 24 -8 0 8 -4 13 -9 10 -4 -3 -8 -1 -8
4 0 8 29 9 73 3 5 -1 5 -7 2 -14 -4 -6 1 -3 9 7 15 18 20 15 17 -9 -1 -5 5 -2
12 7 13 16 15 16 32 0 18 -16 18 -16 6 1 -15 19 -2 24 17 5 14 -14 44 -20 36
-7 -3 5 -10 7 -15 4 -5 -4 -9 -2 -9 3 0 11 62 8 80 -3 5 -3 10 -1 10 5 0 6 5
8 10 5 6 -4 8 -12 4 -18 -3 -7 0 -5 8 4 15 18 71 17 94 -1 12 -11 13 -10 7 6
-6 17 -5 18 11 4 23 -18 46 -22 40 -6 -3 8 6 12 25 11 16 0 27 -4 24 -10 -3
-5 0 -5 7 2 11 10 16 9 25 -4 10 -13 14 -13 20 -3 5 9 4 11 -3 6 -7 -4 -12 -3
-12 2 0 5 16 8 35 8 27 -1 34 -5 30 -16 -4 -12 -3 -12 7 1 14 17 69 20 80 4 5
-6 8 -5 8 3 0 6 5 12 11 12 5 0 7 -5 3 -11 -4 -7 1 -7 16 1 18 10 21 10 15 -2
-6 -10 -5 -10 5 -1 11 10 16 9 25 -4 10 -13 14 -13 20 -3 5 9 4 11 -3 6 -7 -4
-12 -3 -12 2 0 6 11 9 24 8 13 0 22 -5 19 -11 -3 -5 0 -5 7 2 11 10 16 9 25
-4 10 -13 14 -13 20 -3 5 9 4 11 -3 6 -7 -4 -12 -3 -12 2 0 5 16 8 35 8 27 -1
34 -5 30 -16 -4 -12 -3 -12 7 1 14 17 69 20 80 4 5 -6 8 -5 8 3 0 6 5 12 11
12 5 0 7 -5 3 -11 -4 -7 1 -7 16 1 18 10 21 10 15 -2 -6 -10 -5 -10 5 -1 11
10 16 9 25 -3 10 -14 13 -14 26 -2 12 12 44 15 82 9 5 0 5 -7 2 -13 -4 -7 0
-5 8 4 10 13 16 15 25 6 9 -9 12 -9 12 2 0 9 6 8 22 -6 19 -15 20 -16 9 -1
-17 21 -4 22 20 1 13 -12 19 -12 25 -3 4 8 3 10 -4 5 -7 -4 -12 -3 -12 2 0 15
72 5 81 -10 7 -10 9 -8 9 5 0 10 5 15 10 12 6 -4 8 -12 4 -18 -3 -7 1 -4 9 6
14 16 15 16 31 -5 l17 -23 -11 23 c-7 15 -7 22 0 22 5 0 10 -6 10 -12 0 -8 3
-9 8 -3 9 12 32 13 51 1 9 -6 12 -5 8 1 -4 6 0 13 7 16 8 3 17 1 20 -6 2 -7 5
-4 5 6 1 9 4 16 9 15 4 -1 16 3 27 9 11 6 28 9 38 8 15 -3 16 -1 5 13 -11 13
-10 15 10 9 16 -4 22 -2 19 7 -3 7 6 22 19 35 13 13 24 28 24 35 0 7 5 17 12
24 6 6 14 20 17 29 3 10 7 1229 8 2709 3 2543 2 2694 -14 2739 -27 73 -105
147 -183 174 -18 7 -9155 13 -9161 7z m8721 -5820 c0 -3 -4 -8 -10 -11 -5 -3
-10 -1 -10 4 0 6 5 11 10 11 6 0 10 -2 10 -4z"/>
<path d="M447 2559 c7 -7 15 -10 18 -7 3 3 -2 9 -12 12 -14 6 -15 5 -6 -5z"/>
<path d="M8076 1562 c-2 -1 -23 -4 -48 -6 -51 -4 -96 -30 -130 -79 -20 -28
-23 -46 -27 -154 l-3 -123 867 0 867 0 -4 124 c-4 118 -5 125 -32 161 -56 73
-76 77 -440 77 -176 0 -325 -1 -331 -2 -5 -1 -12 -2 -15 -1 -7 3 -563 3 -575
1 -5 -1 -14 -1 -20 0 -16 3 -106 5 -109 2z"/>
</g>
</svg>
