<?xml version="1.0" encoding="utf-8" ?>
<svg xmlns="http://www.w3.org/2000/svg" xmlns:xlink="http://www.w3.org/1999/xlink" width="100" height="114">
	<defs>
		<clipPath id="clip_0">
			<path d="M100 64Q100 62.7193 99.9417 61.4472Q99.8834 60.1751 99.767 58.9142Q99.6505 57.6533 99.4761 56.4061Q99.3018 55.159 99.0698 53.9281Q98.8378 52.6973 98.5488 51.4853Q98.2597 50.2732 97.9141 49.0825Q97.5685 47.8917 97.1672 46.7247Q96.7658 45.5577 96.3094 44.4167Q95.853 43.2758 95.3426 42.1633Q94.8322 41.0508 94.2687 39.969Q93.7053 38.8872 93.09 37.8383Q92.4747 36.7894 91.8087 35.7755Q91.1428 34.7616 90.4276 33.7849Q89.7125 32.8081 88.9495 31.8704Q88.1865 30.9328 87.3773 30.0362Q86.5681 29.1395 85.7143 28.2857Q84.8605 27.4319 83.9639 26.6227Q83.0672 25.8135 82.1296 25.0505Q81.1919 24.2876 80.2152 23.5724Q79.2384 22.8572 78.2245 22.1913Q77.2107 21.5254 76.1617 20.91Q75.1128 20.2947 74.031 19.7313Q72.9492 19.1678 71.8367 18.6574Q70.7242 18.147 69.5833 17.6906Q68.4423 17.2342 67.2753 16.8329Q66.1083 16.4315 64.9175 16.0859Q63.7268 15.7403 62.5148 15.4513Q61.3027 15.1622 60.0719 14.9302Q58.841 14.6983 57.5939 14.5239Q56.3467 14.3495 55.0858 14.233Q53.8249 14.1166 52.5528 14.0583Q51.2807 14 50 14Q48.7193 14 47.4472 14.0583Q46.1751 14.1166 44.9142 14.233Q43.6533 14.3495 42.4061 14.5239Q41.159 14.6983 39.9281 14.9302Q38.6973 15.1622 37.4853 15.4513Q36.2732 15.7403 35.0825 16.0859Q33.8917 16.4315 32.7247 16.8329Q31.5577 17.2342 30.4167 17.6906Q29.2758 18.147 28.1633 18.6574Q27.0508 19.1678 25.969 19.7313Q24.8872 20.2947 23.8383 20.91Q22.7893 21.5254 21.7755 22.1913Q20.7616 22.8572 19.7849 23.5724Q18.8081 24.2876 17.8704 25.0505Q16.9328 25.8135 16.0361 26.6227Q15.1395 27.4319 14.2857 28.2857Q13.4319 29.1395 12.6227 30.0362Q11.8135 30.9328 11.0505 31.8704Q10.2876 32.8081 9.57239 33.7849Q8.85721 34.7616 8.19128 35.7755Q7.52536 36.7894 6.91005 37.8383Q6.29473 38.8872 5.73129 39.969Q5.16784 41.0508 4.65741 42.1633Q4.14698 43.2758 3.69061 44.4167Q3.23424 45.5577 2.83285 46.7247Q2.43147 47.8917 2.08589 49.0825Q1.74032 50.2732 1.45125 51.4853Q1.16219 52.6973 0.930224 53.9281Q0.698261 55.159 0.523874 56.4061Q0.349487 57.6533 0.233031 58.9142Q0.116575 60.1751 0.0582875 61.4472Q0 62.7193 0 64Q0 65.2807 0.0582875 66.5528Q0.116575 67.8249 0.233031 69.0858Q0.349487 70.3467 0.523874 71.5939Q0.698261 72.841 0.930224 74.0719Q1.16219 75.3027 1.45125 76.5148Q1.74032 77.7268 2.08589 78.9175Q2.43147 80.1083 2.83285 81.2753Q3.23424 82.4424 3.69061 83.5833Q4.14698 84.7242 4.65741 85.8367Q5.16784 86.9492 5.73129 88.031Q6.29473 89.1128 6.91005 90.1618Q7.52536 91.2107 8.19128 92.2245Q8.85721 93.2384 9.57239 94.2152Q10.2876 95.1919 11.0505 96.1296Q11.8135 97.0672 12.6227 97.9639Q13.4319 98.8605 14.2857 99.7143Q15.1395 100.568 16.0361 101.377Q16.9328 102.187 17.8704 102.949Q18.8081 103.712 19.7849 104.428Q20.7616 105.143 21.7755 105.809Q22.7894 106.475 23.8383 107.09Q24.8872 107.705 25.969 108.269Q27.0508 108.832 28.1633 109.343Q29.2758 109.853 30.4167 110.309Q31.5577 110.766 32.7247 111.167Q33.8917 111.569 35.0825 111.914Q36.2732 112.26 37.4853 112.549Q38.6973 112.838 39.9281 113.07Q41.159 113.302 42.4061 113.476Q43.6533 113.651 44.9142 113.767Q46.1751 113.883 47.4472 113.942Q48.7193 114 50 114Q51.2807 114 52.5528 113.942Q53.8249 113.883 55.0858 113.767Q56.3467 113.651 57.5939 113.476Q58.841 113.302 60.0719 113.07Q61.3027 112.838 62.5148 112.549Q63.7268 112.26 64.9175 111.914Q66.1083 111.569 67.2753 111.167Q68.4423 110.766 69.5833 110.309Q70.7242 109.853 71.8367 109.343Q72.9492 108.832 74.031 108.269Q75.1128 107.705 76.1617 107.09Q77.2107 106.475 78.2245 105.809Q79.2384 105.143 80.2152 104.428Q81.1919 103.712 82.1296 102.949Q83.0672 102.187 83.9639 101.377Q84.8605 100.568 85.7143 99.7143Q86.5681 98.8605 87.3773 97.9639Q88.1865 97.0672 88.9495 96.1296Q89.7125 95.1919 90.4276 94.2152Q91.1428 93.2384 91.8087 92.2245Q92.4747 91.2107 93.09 90.1618Q93.7053 89.1129 94.2687 88.031Q94.8322 86.9492 95.3426 85.8367Q95.853 84.7242 96.3094 83.5833Q96.7658 82.4424 97.1672 81.2753Q97.5686 80.1083 97.9141 78.9175Q98.2597 77.7268 98.5488 76.5148Q98.8378 75.3027 99.0698 74.0719Q99.3018 72.841 99.4761 71.5939Q99.6505 70.3467 99.767 69.0858Q99.8834 67.8249 99.9417 66.5528Q100 65.2807 100 64Z" clip-rule="evenodd"/>
		</clipPath>
	</defs>
	<g clip-path="url(#clip_0)">
		<path fill="none" stroke="rgb(50,42,85)" stroke-width="20" stroke-miterlimit="4" transform="translate(-0 14)" d="M50 0L50 0Q51.2807 0 52.5528 0.0582875Q53.8249 0.116575 55.0858 0.233031Q56.3467 0.349487 57.5939 0.523874Q58.841 0.698261 60.0719 0.930224Q61.3027 1.16219 62.5148 1.45125Q63.7268 1.74032 64.9175 2.08589Q66.1083 2.43147 67.2753 2.83285Q68.4423 3.23424 69.5833 3.69061Q70.7242 4.14698 71.8367 4.65741Q72.9492 5.16784 74.031 5.73129Q75.1128 6.29473 76.1617 6.91005Q77.2107 7.52536 78.2245 8.19128Q79.2384 8.85721 80.2152 9.57239Q81.1919 10.2876 82.1296 11.0505Q83.0672 11.8135 83.9639 12.6227Q84.8605 13.4319 85.7143 14.2857Q86.5681 15.1395 87.3773 16.0361Q88.1865 16.9328 88.9495 17.8704Q89.7125 18.8081 90.4276 19.7849Q91.1428 20.7616 91.8087 21.7755Q92.4747 22.7894 93.09 23.8383Q93.7053 24.8872 94.2687 25.969Q94.8322 27.0508 95.3426 28.1633Q95.853 29.2758 96.3094 30.4167Q96.7658 31.5577 97.1672 32.7247Q97.5686 33.8917 97.9141 35.0825Q98.2597 36.2732 98.5488 37.4853Q98.8378 38.6973 99.0698 39.9281Q99.3018 41.159 99.4761 42.4061Q99.6505 43.6533 99.767 44.9142Q99.8834 46.1751 99.9417 47.4472Q100 48.7193 100 50L100 50Q100 51.2807 99.9417 52.5528Q99.8834 53.8249 99.767 55.0858Q99.6505 56.3467 99.4761 57.5939Q99.3018 58.841 99.0698 60.0719Q98.8378 61.3027 98.5488 62.5148Q98.2597 63.7268 97.9141 64.9175Q97.5685 66.1083 97.1672 67.2753Q96.7658 68.4423 96.3094 69.5833Q95.853 70.7242 95.3426 71.8367Q94.8322 72.9492 94.2687 74.031Q93.7053 75.1128 93.09 76.1617Q92.4747 77.2107 91.8087 78.2245Q91.1428 79.2384 90.4276 80.2152Q89.7125 81.1919 88.9495 82.1296Q88.1865 83.0672 87.3773 83.9639Q86.5681 84.8605 85.7143 85.7143Q84.8605 86.5681 83.9639 87.3773Q83.0672 88.1865 82.1296 88.9495Q81.1919 89.7125 80.2152 90.4276Q79.2384 91.1428 78.2245 91.8087Q77.2107 92.4747 76.1617 93.09Q75.1128 93.7053 74.031 94.2687Q72.9492 94.8322 71.8367 95.3426Q70.7242 95.853 69.5833 96.3094Q68.4423 96.7658 67.2753 97.1672Q66.1083 97.5685 64.9175 97.9141Q63.7268 98.2597 62.5148 98.5488Q61.3027 98.8378 60.0719 99.0698Q58.841 99.3017 57.5939 99.4761Q56.3467 99.6505 55.0858 99.767Q53.8249 99.8834 52.5528 99.9417Q51.2807 100 50 100L50 100Q48.7193 100 47.4472 99.9417Q46.1751 99.8834 44.9142 99.767Q43.6533 99.6505 42.4061 99.4761Q41.159 99.3017 39.9281 99.0698Q38.6973 98.8378 37.4853 98.5488Q36.2732 98.2597 35.0825 97.9141Q33.8917 97.5685 32.7247 97.1672Q31.5577 96.7658 30.4167 96.3094Q29.2758 95.853 28.1633 95.3426Q27.0508 94.8322 25.969 94.2687Q24.8872 93.7053 23.8383 93.09Q22.7893 92.4747 21.7755 91.8087Q20.7616 91.1428 19.7849 90.4276Q18.8081 89.7125 17.8704 88.9495Q16.9328 88.1865 16.0361 87.3773Q15.1395 86.5681 14.2857 85.7143Q13.4319 84.8605 12.6227 83.9639Q11.8135 83.0672 11.0505 82.1296Q10.2876 81.1919 9.57239 80.2152Q8.85721 79.2384 8.19128 78.2245Q7.52536 77.2107 6.91005 76.1617Q6.29473 75.1128 5.73129 74.031Q5.16784 72.9492 4.65741 71.8367Q4.14698 70.7242 3.69061 69.5833Q3.23424 68.4423 2.83285 67.2753Q2.43147 66.1083 2.08589 64.9175Q1.74032 63.7268 1.45125 62.5148Q1.16219 61.3027 0.930224 60.0719Q0.698261 58.841 0.523874 57.5939Q0.349487 56.3467 0.233031 55.0858Q0.116575 53.8249 0.0582875 52.5528Q0 51.2807 0 50L0 50Q0 48.7193 0.0582875 47.4472Q0.116575 46.1751 0.233031 44.9142Q0.349487 43.6533 0.523874 42.4061Q0.698261 41.159 0.930224 39.9281Q1.16219 38.6973 1.45125 37.4853Q1.74032 36.2732 2.08589 35.0825Q2.43147 33.8917 2.83285 32.7247Q3.23424 31.5577 3.69061 30.4167Q4.14698 29.2758 4.65741 28.1633Q5.16784 27.0508 5.73129 25.969Q6.29473 24.8872 6.91005 23.8383Q7.52536 22.7893 8.19128 21.7755Q8.85721 20.7616 9.57239 19.7849Q10.2876 18.8081 11.0505 17.8704Q11.8135 16.9328 12.6227 16.0361Q13.4319 15.1395 14.2857 14.2857Q15.1395 13.4319 16.0361 12.6227Q16.9328 11.8135 17.8704 11.0505Q18.8081 10.2876 19.7849 9.57239Q20.7616 8.85721 21.7755 8.19128Q22.7894 7.52536 23.8383 6.91005Q24.8872 6.29473 25.969 5.73129Q27.0508 5.16784 28.1633 4.65741Q29.2758 4.14698 30.4167 3.69061Q31.5577 3.23424 32.7247 2.83285Q33.8917 2.43147 35.0825 2.08589Q36.2732 1.74032 37.4853 1.45125Q38.6973 1.16219 39.9281 0.930224Q41.159 0.698261 42.4061 0.523874Q43.6533 0.349487 44.9142 0.233031Q46.1751 0.116575 47.4472 0.0582875Q48.7193 0 50 0Z"/>
	</g>
	<defs>
		<clipPath id="clip_1">
			<path d="M60 0L40 0L40 12L60 12L60 0Z" clip-rule="evenodd"/>
		</clipPath>
	</defs>
	<g clip-path="url(#clip_1)">
		<path fill="none" stroke="rgb(50,42,85)" stroke-width="20" stroke-miterlimit="4" transform="matrix(1 2.98023e-08 -2.98023e-08 1 40 0)" d="M0 0L20 0L20 12L0 12L0 0Z"/>
	</g>
	<defs>
		<clipPath id="clip_2">
			<path d="M87.8298 22.8829L78 16L71.1171 25.8298L80.9469 32.7127L87.8298 22.8829Z" clip-rule="evenodd"/>
		</clipPath>
	</defs>
	<g clip-path="url(#clip_2)">
		<path fill="none" stroke="rgb(50,42,85)" stroke-width="20" stroke-miterlimit="4" transform="matrix(0.819152 0.573577 -0.573577 0.819152 78 16)" d="M0 0L12 0L12 12L0 12L0 0Z"/>
	</g>
	<defs>
		<clipPath id="clip_3">
			<rect x="46" y="34" width="8" height="30" clip-rule="evenodd"/>
		</clipPath>
	</defs>
	<g clip-path="url(#clip_3)">
		<path fill="none" stroke="rgb(50,42,85)" stroke-width="20" stroke-miterlimit="4" transform="translate(46 34)" d="M0 0L8 0L8 30L0 30L0 0Z"/>
                            <animateTransform attributeName="transform"
                          attributeType="XML"
                          type="rotate"
                          from="0 50 64"
                          to="360 50 64"
                          dur="10s"
                          repeatCount="indefinite"/>
	</g>
</svg>
