<?xml version="1.0" standalone="no"?>
<!DOCTYPE svg PUBLIC "-//W3C//DTD SVG 20010904//EN"
 "http://www.w3.org/TR/2001/REC-SVG-20010904/DTD/svg10.dtd">
<svg version="1.0" xmlns="http://www.w3.org/2000/svg"
 width="64.000000pt" height="64.000000pt" viewBox="0 0 64.000000 64.000000"
 preserveAspectRatio="xMidYMid meet">
<metadata>
Created by potrace 1.15, written by Peter Selinger 2001-2017
</metadata>
<g transform="translate(0.000000,64.000000) scale(0.100000,-0.100000)"
fill="#000000" stroke="none">
<path d="M280 555 c-32 -33 -38 -35 -97 -35 l-63 0 0 -62 c0 -58 -2 -65 -37
-100 l-37 -38 37 -38 c35 -35 37 -42 37 -100 l0 -62 62 0 c58 0 65 -2 100 -37
l38 -37 38 37 c35 35 42 37 100 37 l62 0 0 62 c0 58 2 65 37 100 l37 38 -37
38 c-35 35 -37 42 -37 100 l0 62 -63 0 c-59 0 -65 2 -97 35 -19 19 -37 35 -40
35 -3 0 -21 -16 -40 -35z m65 -55 c14 -16 31 -20 77 -20 l58 0 0 -57 c0 -44 5
-62 22 -80 l21 -23 -21 -23 c-17 -18 -22 -36 -22 -80 l0 -57 -57 0 c-44 0 -62
-5 -80 -22 l-23 -21 -23 21 c-18 17 -36 22 -80 22 l-57 0 0 57 c0 44 -5 62
-22 80 l-21 23 21 23 c17 18 22 36 22 80 l0 57 58 0 c46 0 63 4 77 20 10 11
21 20 25 20 4 0 15 -9 25 -20z"/>
<path d="M254 450 c-11 -4 -33 -22 -47 -40 -22 -25 -27 -42 -27 -83 0 -64 15
-94 59 -124 40 -27 107 -31 152 -8 92 48 91 206 -1 252 -28 14 -104 16 -136 3z
m131 -65 c19 -18 25 -35 25 -65 0 -56 -34 -90 -90 -90 -30 0 -47 6 -65 25 -19
18 -25 35 -25 65 0 56 34 90 90 90 30 0 47 -6 65 -25z"/>
                    <animateTransform attributeName="transform"
                          attributeType="XML"
                          type="rotate"
                          from="0 50 64"
                          to="360 50 64"
                          dur="10s"
                          repeatCount="indefinite"/>
</g>
</svg>
