<svg version="1.1" viewBox="0.0 0.0 960.0 720.0" fill="none" stroke="none" stroke-linecap="square" stroke-miterlimit="10" xmlns:xlink="http://www.w3.org/1999/xlink" xmlns="http://www.w3.org/2000/svg"><clipPath id="p.0"><path d="m0 0l960.0 0l0 720.0l-960.0 0l0 -720.0z" clip-rule="nonzero"/></clipPath><g clip-path="url(#p.0)"><path fill="#000000" fill-opacity="0.0" d="m0 0l960.0 0l0 720.0l-960.0 0z" fill-rule="evenodd"/><defs><linearGradient id="p.1" gradientUnits="userSpaceOnUse" gradientTransform="matrix(-14.431118350238094 0.0 0.0 -14.431118350238094 0.0 0.0)" spreadMethod="pad" x1="-48.13238654197625" y1="-49.890784993996455" x2="-48.13243769455906" y2="-35.459666643849026"><stop offset="0.0" stop-color="#f2f2f2"/><stop offset="1.0" stop-color="#a6a6a6"/></linearGradient></defs><path fill="url(#p.1)" d="m659.89124 719.9782l-359.80963 0c-9.205475 0 -18.033936 -3.6568604 -24.543213 -10.166138c-6.509247 -6.5092773 -10.166138 -15.3377075 -10.166138 -24.543213l0 -173.5426c0 -0.0019836426 0.0016174316 -0.0036010742 0.0035705566 -0.0036010742l429.22476 0.0036010742l0 0c0.0020141602 0 0.0036010742 0.0015869141 0.0036010742 0.0035705566l-0.0036010742 173.53903l0 0c0 19.169434 -15.539856 34.70935 -34.70935 34.70935z" fill-rule="evenodd"/><g filter="url(#shadowFilter-p.2)"><use xlink:href="#p.2" transform="matrix(1.0 0.0 0.0 1.0 0.0 2.0)"/></g><defs><filter id="shadowFilter-p.2" filterUnits="userSpaceOnUse"><feGaussianBlur in="SourceAlpha" stdDeviation="2.0" result="blur"/><feComponentTransfer in="blur" color-interpolation-filters="sRGB"><feFuncR type="linear" slope="0" intercept="0.0"/><feFuncG type="linear" slope="0" intercept="0.0"/><feFuncB type="linear" slope="0" intercept="0.0"/><feFuncA type="linear" slope="0.5" intercept="0"/></feComponentTransfer></filter></defs><g id="p.2"><path fill="#d9d9d9" d="m0 28.328857l0 0c0 -15.6455965 12.683261 -28.328857 28.328857 -28.328857l903.3108 0c7.5133057 0 14.718811 2.984639 20.031555 8.29733c5.312683 5.3126917 8.297302 12.518247 8.297302 20.031528l0 525.6415c0 15.64563 -12.683289 28.328857 -28.328857 28.328857l-903.3108 0c-15.6455965 0 -28.328857 -12.683228 -28.328857 -28.328857z" fill-rule="evenodd"/></g><defs><linearGradient id="p.3" gradientUnits="userSpaceOnUse" gradientTransform="matrix(23.42642848807287 0.0 0.0 23.42642848807287 0.0 0.0)" spreadMethod="pad" x1="40.222044890344684" y1="24.142100767362965" x2="40.22230398036384" y2="0.7156722807228281"><stop offset="0.0" stop-color="#000000"/><stop offset="1.0" stop-color="#434343"/></linearGradient></defs><path fill="url(#p.3)" d="m17.69193 43.464153l0 0c0 -14.745178 11.953329 -26.698507 26.698507 -26.698507l871.1699 0c7.0808716 0 13.871765 2.81287 18.878662 7.819811c5.006958 5.006941 7.819824 11.79781 7.819824 18.878696l0 495.3904c0 14.745178 -11.953308 26.698486 -26.698486 26.698486l-871.1699 0c-14.745178 0 -26.698507 -11.953308 -26.698507 -26.698486z" fill-rule="evenodd"/><path fill="#cccccc" d="m804.9851 683.8494l136.94482 0c4.7948 0 9.393188 1.9047241 12.78363 5.295166c3.390442 3.3903809 5.295166 7.9887695 5.295166 12.783569l0 18.078735c0 7.9345703E-4 -6.713867E-4 0.0014648438 -0.0014648438 0.0014648438l-173.10095 -0.0014648438l0 0c-7.9345703E-4 0 -0.0014038086 -6.1035156E-4 -0.0014038086 -0.0014038086l0.0014038086 -18.077332l0 0c0 -9.984619 8.094177 -18.078735 18.078796 -18.078735z" fill-rule="evenodd"/><path fill="#cccccc" d="m18.078741 683.8494l589.98425 0c4.7948 0 9.393188 1.9047241 12.78363 5.295166c3.3903809 3.3903809 5.295105 7.9887695 5.295105 12.783569l0 18.078735c0 0.0028686523 -0.002319336 0.0052490234 -0.0051879883 0.0052490234l-626.13654 -0.0052490234l8.987985E-19 0c-0.0028817377 0 -0.005217848 -0.002319336 -0.005217848 -0.0051879883l0.005217848 -18.073547l0 0c0 -9.984619 8.094128 -18.078735 18.078741 -18.078735z" fill-rule="evenodd"/></g></svg>