<?xml version="1.0" standalone="no"?><!-- Generator: Gravit.io --><svg xmlns="http://www.w3.org/2000/svg" xmlns:xlink="http://www.w3.org/1999/xlink" style="isolation:isolate" viewBox="0 0 960 720" width="960" height="720"><defs><clipPath id="_clipPath_7jOPeoy2vwePc0AD7y4GgEwpKqCHqw1o"><rect width="960" height="720"/></clipPath></defs><g clip-path="url(#_clipPath_7jOPeoy2vwePc0AD7y4GgEwpKqCHqw1o)"><clipPath id="_clipPath_K9354sySlowkaSoJUktp5z5Id16gRhzB"><path d=" M 0 0 L 960 0 L 960 720 L 0 720 L 0 0 L 0 0 Z " fill="rgb(255,255,255)"/></clipPath><g clip-path="url(#_clipPath_K9354sySlowkaSoJUktp5z5Id16gRhzB)"><g><path d=" M 0 0 L 960 0 L 960 720 L 0 720 L 0 0 Z " fill-rule="evenodd" fill="none"/><linearGradient id="_lgradient_0" x1="0.9999999441697329" y1="1.000007792515635" x2="1.0000016639601819" y2="0.5148221352886292" gradientTransform="matrix(429.232,0,0,208.256,265.372,511.723)" gradientUnits="userSpaceOnUse"><stop offset="0%" stop-opacity="1" style="stop-color:rgb(242,242,242)"/><stop offset="100%" stop-opacity="1" style="stop-color:rgb(166,166,166)"/></linearGradient><path d=" M 659.891 719.978 L 300.082 719.978 C 290.876 719.978 282.048 716.321 275.538 709.812 C 269.029 703.303 265.372 694.474 265.372 685.269 L 265.372 511.726 C 265.372 511.724 265.374 511.723 265.376 511.723 L 694.601 511.726 L 694.601 511.726 C 694.603 511.726 694.604 511.728 694.604 511.73 L 694.601 685.269 L 694.601 685.269 C 694.601 704.438 679.061 719.978 659.891 719.978 L 659.891 719.978 Z " fill-rule="evenodd" fill="url(#_lgradient_0)"/><g filter="url(#zR9tLF6hsQ4mMF47b5O9CmwOcQWjXgld)"><g><path d=" M 0 30.329 L 0 30.329 C 0 14.683 12.683 2 28.329 2 L 931.64 2 C 939.153 2 946.358 4.985 951.671 10.297 C 956.984 15.61 959.969 22.816 959.969 30.329 L 959.969 555.97 C 959.969 571.616 947.285 584.299 931.64 584.299 L 28.329 584.299 C 12.683 584.299 0 571.616 0 555.97 L 0 30.329 Z " fill-rule="evenodd" fill="rgb(217,217,217)"/></g></g><defs><filter id="zR9tLF6hsQ4mMF47b5O9CmwOcQWjXgld" x="-13.974" y="-11.974" width="987.917" height="610.248" filterUnits="userSpaceOnUse"><feGaussianBlur xmlns="http://www.w3.org/2000/svg" stdDeviation="2"/></filter></defs><g><path d=" M 0 30.329 L 0 30.329 C 0 14.683 12.683 2 28.329 2 L 931.64 2 C 939.153 2 946.358 4.985 951.671 10.297 C 956.984 15.61 959.969 22.816 959.969 30.329 L 959.969 555.97 C 959.969 571.616 947.285 584.299 931.64 584.299 L 28.329 584.299 C 12.683 584.299 0 571.616 0 555.97 L 0 30.329 Z " fill-rule="evenodd" fill="rgb(217,217,217)"/></g><linearGradient id="_lgradient_1" x1="1.0000000381451217" y1="1.0000185102256487" x2="1.0000066028986854" y2="0.40644593497176484" gradientTransform="matrix(924.567,0,0,548.787,17.692,16.766)" gradientUnits="userSpaceOnUse"><stop offset="0%" stop-opacity="1" style="stop-color:rgb(0,0,0)"/><stop offset="100%" stop-opacity="1" style="stop-color:rgb(67,67,67)"/></linearGradient><path d=" M 17.692 43.464 L 17.692 43.464 C 17.692 28.719 29.645 16.766 44.39 16.766 L 915.56 16.766 C 922.641 16.766 929.432 19.579 934.439 24.585 C 939.446 29.592 942.259 36.383 942.259 43.464 L 942.259 538.855 C 942.259 553.6 930.306 565.553 915.56 565.553 L 44.39 565.553 C 29.645 565.553 17.692 553.6 17.692 538.855 L 17.692 43.464 Z " fill-rule="evenodd" fill="url(#_lgradient_1)"/><path d=" M 804.985 683.849 L 941.93 683.849 C 946.725 683.849 951.323 685.754 954.714 689.145 C 958.104 692.535 960.009 697.133 960.009 701.928 L 960.009 720.007 C 960.009 720.008 960.008 720.008 960.007 720.008 L 786.906 720.007 L 786.906 720.007 C 786.906 720.007 786.905 720.006 786.905 720.005 L 786.906 701.928 L 786.906 701.928 C 786.906 691.944 795 683.849 804.985 683.849 L 804.985 683.849 Z " fill-rule="evenodd" fill="rgb(204,204,204)"/><path d=" M 18.079 683.849 L 608.063 683.849 C 612.858 683.849 617.456 685.754 620.847 689.145 C 624.237 692.535 626.142 697.133 626.142 701.928 L 626.142 720.007 C 626.142 720.01 626.139 720.012 626.137 720.012 L 0 720.007 L 0 720.007 C -0.003 720.007 -0.005 720.005 -0.005 720.002 L 0 701.928 L 0 701.928 C 0 691.944 8.094 683.849 18.079 683.849 L 18.079 683.849 Z " fill-rule="evenodd" fill="rgb(204,204,204)"/></g></g><path d="M 117 408.707 L 202 408.707 C 207.519 408.707 212 413.188 212 418.707 L 212 509.293 C 212 514.812 207.519 519.293 202 519.293 L 117 519.293 C 111.481 519.293 107 514.812 107 509.293 L 107 418.707 C 107 413.188 111.481 408.707 117 408.707 Z" style="stroke:none;fill:#ECA63E;stroke-miterlimit:10;"/><path d="M 43.175 16 L 916.825 16 C 930.996 16 942.5 27.504 942.5 41.675 L 942.5 540.325 C 942.5 554.496 930.996 566 916.825 566 L 43.175 566 C 29.004 566 17.5 554.496 17.5 540.325 L 17.5 41.675 C 17.5 27.504 29.004 16 43.175 16 Z" style="stroke:none;fill:#ECA63E;stroke-miterlimit:10;"/></g></svg>