<svg version="1.1" viewBox="0.0 0.0 960.0 720.0" fill="none" stroke="none" stroke-linecap="square" stroke-miterlimit="10" xmlns:xlink="http://www.w3.org/1999/xlink" xmlns="http://www.w3.org/2000/svg"><clipPath id="p.0"><path d="m0 0l960.0 0l0 720.0l-960.0 0l0 -720.0z" clip-rule="nonzero"/></clipPath><g clip-path="url(#p.0)"><path fill="#000000" fill-opacity="0.0" d="m0 0l960.0 0l0 720.0l-960.0 0z" fill-rule="evenodd"/><defs><linearGradient id="p.1" gradientUnits="userSpaceOnUse" gradientTransform="matrix(23.42575613544821 0.0 0.0 23.42575613544821 0.0 0.0)" spreadMethod="pad" x1="40.22048930109041" y1="24.14141241055793" x2="40.22074839854582" y2="0.7156562765425745"><stop offset="0.0" stop-color="#000000"/><stop offset="1.0" stop-color="#434343"/></linearGradient></defs><path fill="url(#p.1)" d="m17.691471 43.461765l0 0c0 -14.744333 11.952642 -26.696976 26.696976 -26.696976l871.11 0c7.0805054 0 13.870972 2.812708 18.877625 7.8193626c5.006653 5.006653 7.819397 11.797134 7.819397 18.877613l0 495.36197c0 14.744324 -11.952698 26.69696 -26.697021 26.69696l-871.11 0c-14.744333 0 -26.696976 -11.952637 -26.696976 -26.69696z" fill-rule="evenodd"/></g></svg>